<?xml version="1.0" standalone="no"?>
<!DOCTYPE svg PUBLIC "-//W3C//DTD SVG 20010904//EN"
 "http://www.w3.org/TR/2001/REC-SVG-20010904/DTD/svg10.dtd">
<svg version="1.0" xmlns="http://www.w3.org/2000/svg"
 width="500.000000pt" height="500.000000pt" viewBox="0 0 500.000000 500.000000"
 preserveAspectRatio="xMidYMid meet">

<g transform="translate(0.000000,500.000000) scale(0.100000,-0.100000)"
fill="#000000" stroke="none">
<path d="M2870 4945 c-261 -59 -445 -159 -608 -330 -175 -182 -241 -315 -279
-560 -24 -154 -24 -1174 -1 -1294 34 -172 141 -333 265 -398 106 -56 195 -78
318 -78 100 1 119 4 215 37 57 20 109 34 116 30 6 -4 45 -47 86 -97 41 -49 94
-107 118 -129 44 -39 159 -98 217 -111 17 -3 36 -12 41 -18 12 -15 21 -1132 9
-1143 -5 -5 -25 0 -45 11 -44 24 -82 91 -82 145 0 68 -57 107 -103 70 -19 -16
-22 -28 -21 -82 0 -74 23 -125 81 -179 92 -88 118 -92 568 -90 247 1 398 -2
430 -9 154 -34 261 -174 272 -355 7 -113 -16 -135 -157 -150 l-65 -7 3 75 c5
86 -6 128 -49 186 -24 34 -35 41 -62 41 -22 0 -41 -8 -56 -24 l-22 -23 32 -52
c26 -42 33 -64 37 -124 l4 -72 -633 3 c-601 2 -638 3 -701 22 -78 24 -128 62
-157 123 -36 76 -43 193 -39 719 3 475 2 497 -16 517 -23 25 -68 27 -87 4 -8
-9 -16 -46 -19 -82 l-5 -66 -75 -7 c-147 -14 -385 -49 -413 -60 -33 -13 -50
-48 -41 -85 6 -24 9 -25 63 -19 177 21 315 39 380 52 40 7 78 11 83 8 6 -4 7
-29 4 -58 -3 -28 -6 -208 -7 -401 -2 -296 1 -361 15 -420 17 -72 88 -208 133
-256 l24 -26 -42 -7 c-36 -6 -179 1 -179 9 0 1 7 22 16 46 21 55 23 185 5 259
-33 132 -112 236 -228 298 -100 53 -160 61 -510 72 -175 5 -336 14 -358 19
-79 20 -167 7 -180 -27 -9 -23 25 -63 76 -90 43 -22 56 -22 434 -30 l390 -7
67 -33 c124 -61 199 -171 214 -314 12 -122 -31 -168 -160 -168 l-64 0 -4 93
c-3 84 -6 99 -33 143 -48 77 -121 96 -147 39 -11 -25 -12 -23 39 -93 11 -15
18 -51 21 -103 l5 -79 -604 6 c-799 7 -873 15 -931 99 -58 84 -57 258 2 399
17 39 30 79 30 88 0 23 2 23 117 -8 284 -76 514 7 741 270 64 73 85 112 107
196 26 100 56 143 86 124 14 -8 11 -81 -6 -121 -8 -19 -15 -37 -15 -39 0 -10
34 -2 69 16 46 23 71 70 71 135 0 40 -5 52 -33 80 -47 47 -93 54 -154 24 -47
-23 -50 -28 -127 -183 -66 -134 -88 -168 -140 -220 -73 -73 -173 -129 -282
-156 -154 -40 -304 -18 -468 67 -118 62 -186 128 -232 227 -53 116 -68 191
-68 351 0 345 102 593 343 833 189 187 450 300 906 392 166 33 230 53 221 68
-5 9 -31 20 -81 37 -16 5 -8 11 37 29 85 35 188 124 188 163 0 22 -48 83 -66
83 -8 0 -30 -18 -50 -39 -45 -50 -119 -98 -165 -106 -44 -8 -94 14 -104 46 -8
25 -17 17 80 72 71 40 126 61 216 81 36 8 63 65 54 114 -15 80 -89 301 -121
363 -50 95 -137 178 -237 227 -112 55 -294 116 -424 142 -321 65 -509 173
-584 335 -26 56 -25 129 2 156 l21 21 67 -64 c36 -36 86 -81 111 -100 126
-100 371 -228 635 -333 212 -83 293 -125 361 -188 103 -94 168 -206 229 -397
49 -154 54 -166 74 -185 16 -13 20 -14 30 -1 22 26 24 118 6 207 -35 175 -108
316 -219 423 -93 89 -216 161 -436 254 -327 139 -590 292 -745 436 -83 78
-142 86 -199 29 -48 -47 -66 -95 -66 -170 1 -83 24 -153 75 -227 38 -56 39
-57 22 -85 -12 -20 -17 -52 -17 -104 0 -122 34 -192 123 -252 l50 -34 2 -78
c3 -149 73 -245 203 -278 111 -28 108 -26 114 -92 7 -70 35 -130 78 -166 32
-28 202 -87 308 -107 48 -10 62 -17 62 -31 0 -25 42 -71 84 -94 20 -11 36 -22
36 -26 0 -3 -71 -23 -157 -43 -379 -92 -641 -223 -823 -412 -171 -178 -282
-388 -336 -634 -28 -128 -26 -434 4 -545 46 -171 159 -338 263 -391 27 -13 49
-26 49 -28 0 -3 -11 -26 -24 -53 -31 -62 -66 -242 -66 -342 0 -102 28 -193 76
-249 l36 -42 -151 0 c-142 0 -151 -1 -171 -22 -11 -12 -20 -30 -20 -40 0 -23
35 -58 58 -58 9 0 1092 0 2406 0 1747 0 2393 3 2403 11 30 26 -1 99 -43 99
-12 0 -15 6 -9 23 3 12 9 56 12 97 20 280 -189 510 -462 510 -44 0 -99 8 -136
19 -121 37 -217 44 -515 38 l-282 -5 -7 252 c-3 138 -5 392 -3 565 l3 315 67
12 c36 7 75 17 86 23 33 17 62 61 62 93 0 16 -31 208 -70 426 -82 464 -153
929 -145 943 4 5 12 9 19 9 7 0 45 16 84 35 130 65 242 215 261 348 5 37 12
71 16 76 3 6 31 18 61 28 73 23 124 77 124 131 0 50 -40 89 -142 137 -42 20
-83 44 -91 53 -8 9 -22 50 -31 89 -20 91 -52 176 -84 228 -89 142 -253 258
-448 316 -92 28 -301 35 -394 14z m278 -93 c6 -20 -258 -281 -283 -282 -24 0
-45 18 -45 38 0 25 189 237 225 253 30 12 98 6 103 -9z m-278 -4 c0 -23 -125
-197 -142 -198 -28 0 -48 11 -48 29 0 21 49 99 81 128 47 43 109 66 109 41z
m498 -54 c12 -8 22 -21 22 -29 0 -14 -74 -71 -126 -98 -17 -9 -53 -33 -80 -54
-85 -65 -216 -143 -241 -143 -29 0 -32 36 -3 45 11 4 64 48 118 98 160 152
219 197 255 197 18 0 43 -7 55 -16z m-768 -59 c0 -36 -30 -61 -95 -80 -32 -9
-70 -23 -84 -32 -23 -14 -23 -12 4 11 102 90 149 125 168 126 4 0 7 -11 7 -25z
m989 -140 c48 -73 63 -109 115 -286 14 -47 34 -93 43 -101 10 -9 54 -32 98
-51 44 -20 81 -42 83 -50 3 -15 -63 -47 -97 -47 -22 0 -71 -47 -71 -69 0 -9
-4 -22 -9 -30 -8 -12 -16 -9 -46 17 -42 38 -49 39 -68 12 -28 -40 7 -105 64
-117 36 -7 37 -23 3 -91 -59 -120 -239 -222 -388 -222 -136 0 -246 49 -351
156 -81 82 -118 144 -140 233 -19 73 -16 85 35 148 43 51 70 117 70 169 0 61
14 79 92 116 40 19 116 69 170 110 108 86 164 120 246 154 89 37 95 35 151
-51z m-908 -47 c55 -19 97 -57 123 -111 67 -140 29 -275 -96 -347 -121 -69
-261 -19 -324 115 -26 55 -31 130 -12 186 40 119 193 197 309 157z m-415 -169
c-10 -88 -12 -90 -60 -87 -49 4 -50 14 -4 95 21 37 36 53 50 53 19 0 20 -4 14
-61z m32 -248 c17 -33 32 -62 32 -65 0 -3 -42 -6 -94 -6 -85 0 -95 2 -120 25
-30 28 -31 36 -11 75 15 29 18 30 88 30 l72 0 33 -59z m-1726 -40 c67 -36 108
-51 258 -96 l55 -16 0 -81 0 -80 -60 5 c-76 8 -219 44 -265 67 -93 47 -153
159 -116 215 22 34 42 32 128 -14z m548 -171 c30 -10 82 -26 115 -35 97 -27
180 -71 219 -117 20 -23 36 -46 36 -51 0 -12 -152 -1 -262 18 -135 24 -160 34
-205 81 -45 46 -50 64 -33 109 11 30 25 29 130 -5z m1606 -6 c8 -19 17 -48 21
-65 l6 -29 -310 0 c-299 0 -311 1 -337 21 -36 29 -36 73 2 93 22 12 79 15 315
16 l288 0 15 -36z m-1872 -195 c56 -5 111 -16 122 -24 17 -11 71 -92 92 -136
12 -27 -208 -39 -308 -18 -69 15 -140 80 -140 128 0 18 5 42 11 53 10 18 17
20 66 14 31 -4 101 -11 157 -17z m1957 -9 c19 -11 112 -105 117 -121 2 -5
-163 -9 -396 -9 -389 0 -400 1 -426 21 -31 25 -34 59 -5 85 19 17 43 20 228
24 378 10 462 10 482 0z m-1446 -79 c83 -7 161 -18 175 -25 31 -15 70 -72 70
-102 0 -36 -49 -84 -118 -115 -79 -36 -115 -37 -147 -4 -37 36 -32 52 24 69
64 19 95 36 85 46 -5 5 -48 13 -96 19 -51 6 -105 19 -129 32 -41 20 -99 75
-99 92 0 5 19 7 43 4 23 -2 110 -10 192 -16z m1795 -156 c36 -8 99 -17 141
-20 l77 -7 5 -36 c2 -20 2 -40 0 -44 -2 -5 -67 -8 -143 -8 -137 0 -140 0 -144
23 -8 36 -12 107 -6 107 3 0 34 -7 70 -15z m-290 -13 c81 -7 85 -8 107 -40 26
-39 19 -71 -18 -88 -17 -7 -149 -9 -430 -5 -382 6 -408 7 -428 25 -27 25 -27
64 1 93 l21 23 331 -1 c182 -1 369 -4 416 -7z m-1688 -29 c9 -10 21 -34 27
-54 7 -20 20 -44 31 -54 30 -27 14 -43 -60 -59 -121 -28 -195 -15 -238 39 -16
21 -19 32 -12 56 12 42 26 56 63 68 81 25 169 27 189 4z m449 -66 c-16 -16
-26 0 -10 19 9 11 15 12 17 4 2 -6 -1 -17 -7 -23z m-282 -118 c34 -12 59 -25
54 -29 -33 -29 -170 -58 -199 -42 -16 9 -14 14 23 51 22 23 45 41 50 41 5 0
37 -10 72 -21z m2065 -5 c3 -9 6 -29 6 -45 l0 -30 -157 3 -158 3 -3 43 -3 42
154 0 c132 0 156 -2 161 -16z m-435 -40 c37 -48 21 -96 -37 -111 -14 -3 -203
-3 -420 1 -328 5 -397 9 -417 22 -30 19 -38 40 -25 65 26 47 39 48 472 49
l407 0 20 -26z m466 -169 c16 -80 19 -73 -32 -81 -43 -6 -292 1 -299 9 -2 2
-7 25 -10 50 l-7 47 171 0 172 0 5 -25z m-465 -65 c29 -29 27 -85 -4 -105 -21
-14 -73 -16 -428 -13 -364 3 -406 5 -435 21 -43 23 -45 66 -7 96 26 20 37 21
440 21 401 0 415 -1 434 -20z m493 -134 c3 -7 8 -34 12 -59 7 -44 6 -46 -20
-53 -27 -7 -352 -1 -359 7 -2 2 -1 30 1 62 l5 57 178 0 c142 0 179 -3 183 -14z
m-495 -123 c2 -18 -4 -43 -13 -57 -31 -47 -62 -50 -439 -43 l-349 6 -29 28
c-30 28 -37 70 -16 91 9 9 113 12 428 10 l415 -3 3 -32z m535 -103 c4 -3 10
-30 14 -60 l6 -53 -199 6 c-113 3 -213 10 -232 17 -35 13 -48 43 -38 85 l6 25
218 -6 c119 -4 220 -10 225 -14z m-663 -112 c0 -18 -63 -59 -123 -79 -59 -21
-213 -25 -287 -9 -86 20 -180 67 -180 92 0 4 133 8 295 8 229 0 295 -3 295
-12z m275 -84 c34 -11 110 -17 242 -21 l191 -6 6 -30 c16 -79 28 -74 -183 -82
-103 -4 -203 -4 -222 0 -62 13 -139 89 -139 138 0 22 37 22 105 1z m465 -273
c0 -28 -2 -30 -56 -36 -88 -12 -224 14 -279 51 -17 12 6 14 158 14 l177 0 0
-29z m982 -1482 c63 -32 140 -116 178 -193 29 -58 34 -79 34 -141 1 -65 -2
-76 -24 -100 -14 -15 -33 -25 -45 -23 -17 3 -21 13 -26 78 -8 92 -36 153 -77
168 -25 9 -62 61 -62 89 0 4 -18 39 -39 76 l-40 67 30 0 c16 0 48 -9 71 -21z
m24 -435 c-3 -8 -10 -14 -16 -14 -14 0 -13 27 2 53 l13 22 3 -23 c2 -13 1 -30
-2 -38z"/>
<path d="M3385 4457 c-102 -34 -205 -107 -205 -145 0 -29 83 -125 143 -166
117 -80 247 -58 293 51 16 37 19 169 4 207 -5 14 -24 33 -42 42 -42 22 -142
27 -193 11z m95 -156 c0 -33 3 -66 6 -75 5 -13 -1 -16 -29 -16 -43 0 -122 56
-122 86 0 23 75 64 117 64 27 0 28 -1 28 -59z"/>
<path d="M2560 4459 c-68 -28 -107 -99 -95 -175 8 -56 43 -98 100 -120 43 -16
45 -16 92 7 138 68 114 279 -33 295 -21 2 -50 -1 -64 -7z m85 -142 c8 -24 6
-31 -10 -43 -24 -18 -28 -18 -56 5 -21 17 -22 22 -11 45 17 38 62 33 77 -7z"/>
<path d="M775 4730 c-44 -18 -85 -86 -85 -141 0 -14 66 -59 87 -59 6 0 14 15
19 32 6 18 17 34 27 36 9 2 53 -29 104 -73 48 -43 135 -108 193 -147 210 -139
729 -371 751 -336 5 7 9 32 9 55 0 53 4 50 -215 148 -302 135 -531 268 -690
400 -69 57 -136 95 -165 94 -8 0 -24 -4 -35 -9z"/>
<path d="M795 2486 c-22 -7 -86 -43 -142 -80 -280 -186 -406 -435 -405 -801 0
-157 20 -256 69 -347 108 -199 411 -307 627 -224 38 14 85 36 105 48 94 58
233 219 313 365 52 96 82 117 174 121 124 7 188 -46 200 -166 12 -111 -48
-192 -226 -307 -101 -66 -131 -98 -111 -118 26 -26 215 48 308 122 93 73 147
186 145 304 -1 101 -69 214 -156 260 -34 18 -58 22 -133 22 -86 0 -94 -2 -135
-30 -24 -17 -70 -69 -103 -116 -59 -85 -168 -211 -254 -296 -25 -24 -74 -58
-110 -76 -57 -27 -79 -32 -158 -35 -196 -8 -332 78 -333 210 0 20 -17 85 -37
145 -36 106 -37 111 -37 258 0 137 2 156 26 222 32 89 137 242 215 313 83 77
149 105 243 105 59 0 86 -5 125 -24 72 -35 175 -143 216 -227 34 -68 34 -70
34 -209 l0 -140 -48 -137 c-30 -85 -46 -145 -42 -158 6 -20 7 -20 43 -1 107
55 172 213 172 420 0 191 -55 340 -167 449 -75 72 -114 93 -229 122 -88 23
-132 24 -189 6z"/>
<path d="M2538 2170 c-79 -14 -145 -64 -187 -145 -60 -114 16 -249 167 -295
90 -28 129 -26 204 13 52 27 68 41 90 82 53 98 45 186 -23 260 -63 68 -158
100 -251 85z m152 -146 c34 -31 40 -42 40 -76 0 -51 -30 -102 -70 -118 -40
-17 -120 -8 -153 16 -100 74 -38 214 95 214 41 0 54 -5 88 -36z"/>
<path d="M4306 472 c-4 -7 14 -60 65 -187 5 -13 8 7 8 55 1 58 -4 82 -19 108
-19 31 -43 41 -54 24z"/>
</g>
</svg>
